<svg width="20" height="20" viewBox="0 0 20 20" fill="none" xmlns="http://www.w3.org/2000/svg">
<path d="M13.3333 14.1667C13.7754 14.1667 14.1993 14.3423 14.5118 14.6548C14.8244 14.9674 15 15.3913 15 15.8333C15 16.2754 14.8244 16.6993 14.5118 17.0118C14.1993 17.3244 13.7754 17.5 13.3333 17.5C12.8913 17.5 12.4674 17.3244 12.1548 17.0118C11.8423 16.6993 11.6667 16.2754 11.6667 15.8333C11.6667 15.3913 11.8423 14.9674 12.1548 14.6548C12.4674 14.3423 12.8913 14.1667 13.3333 14.1667ZM6.66667 14.1667C7.10869 14.1667 7.53262 14.3423 7.84518 14.6548C8.15774 14.9674 8.33333 15.3913 8.33333 15.8333C8.33333 16.2754 8.15774 16.6993 7.84518 17.0118C7.53262 17.3244 7.10869 17.5 6.66667 17.5C6.22464 17.5 5.80072 17.3244 5.48816 17.0118C5.17559 16.6993 5 16.2754 5 15.8333C5 15.3913 5.17559 14.9674 5.48816 14.6548C5.80072 14.3423 6.22464 14.1667 6.66667 14.1667ZM13.3333 8.33333C13.7754 8.33333 14.1993 8.50893 14.5118 8.82149C14.8244 9.13405 15 9.55797 15 10C15 10.442 14.8244 10.866 14.5118 11.1785C14.1993 11.4911 13.7754 11.6667 13.3333 11.6667C12.8913 11.6667 12.4674 11.4911 12.1548 11.1785C11.8423 10.866 11.6667 10.442 11.6667 10C11.6667 9.55797 11.8423 9.13405 12.1548 8.82149C12.4674 8.50893 12.8913 8.33333 13.3333 8.33333ZM6.66667 8.33333C7.10869 8.33333 7.53262 8.50893 7.84518 8.82149C8.15774 9.13405 8.33333 9.55797 8.33333 10C8.33333 10.442 8.15774 10.866 7.84518 11.1785C7.53262 11.4911 7.10869 11.6667 6.66667 11.6667C6.22464 11.6667 5.80072 11.4911 5.48816 11.1785C5.17559 10.866 5 10.442 5 10C5 9.55797 5.17559 9.13405 5.48816 8.82149C5.80072 8.50893 6.22464 8.33333 6.66667 8.33333ZM13.3333 2.5C13.7754 2.5 14.1993 2.67559 14.5118 2.98816C14.8244 3.30072 15 3.72464 15 4.16667C15 4.60869 14.8244 5.03262 14.5118 5.34518C14.1993 5.65774 13.7754 5.83333 13.3333 5.83333C12.8913 5.83333 12.4674 5.65774 12.1548 5.34518C11.8423 5.03262 11.6667 4.60869 11.6667 4.16667C11.6667 3.72464 11.8423 3.30072 12.1548 2.98816C12.4674 2.67559 12.8913 2.5 13.3333 2.5ZM6.66667 2.5C7.10869 2.5 7.53262 2.67559 7.84518 2.98816C8.15774 3.30072 8.33333 3.72464 8.33333 4.16667C8.33333 4.60869 8.15774 5.03262 7.84518 5.34518C7.53262 5.65774 7.10869 5.83333 6.66667 5.83333C6.22464 5.83333 5.80072 5.65774 5.48816 5.34518C5.17559 5.03262 5 4.60869 5 4.16667C5 3.72464 5.17559 3.30072 5.48816 2.98816C5.80072 2.67559 6.22464 2.5 6.66667 2.5Z" fill="#7A7A7A"/>
</svg>
